<svg xmlns="http://www.w3.org/2000/svg" version="1.1" xmlns:xlink="http://www.w3.org/1999/xlink" xmlns:svgjs="http://svgjs.dev/svgjs" width="1000" height="1000" viewBox="0 0 1000 1000"><rect width="1000" height="1000" fill="#111111"></rect><g transform="matrix(0.7,0,0,0.7,149.5757587360386,423.53701501940714)"><svg viewBox="0 0 396 87" data-background-color="#111111" preserveAspectRatio="xMidYMid meet" height="219" width="1000" xmlns="http://www.w3.org/2000/svg" xmlns:xlink="http://www.w3.org/1999/xlink"><g id="tight-bounds" transform="matrix(1,0,0,1,0.23999975385470407,-0.10613376835237887)"><svg viewBox="0 0 395.52 87.21226753670473" height="87.21226753670473" width="395.52"><g><svg viewBox="0 0 395.52 87.21226753670473" height="87.21226753670473" width="395.52"><g><svg viewBox="0 0 395.52 87.21226753670473" height="87.21226753670473" width="395.52"><g id="textblocktransform"><svg viewBox="0 0 395.52 87.21226753670473" height="87.21226753670473" width="395.52" id="textblock"><g><svg viewBox="0 0 395.52 87.21226753670473" height="87.21226753670473" width="395.52"><g transform="matrix(1,0,0,1,0,0)"><svg width="395.52" viewBox="4.050000190734863 -40.150001525878906 183.88999938964844 40.55000305175781" height="87.21226753670473" data-palette-color="#ffffff"><path d="M25.5 0.05L7.2 0.05Q5.35 0.05 4.7-0.9 4.05-1.85 4.05-3L4.05-3 4.05-36.7Q4.05-37.85 4.7-38.78 5.35-39.7 7.2-39.7L7.2-39.7 24.6-39.7Q26.45-39.7 26.55-37.2L26.55-37.2Q26.65-34.65 24.6-34.65L24.6-34.65 9.95-34.65 9.95-5 25.5-5Q27.35-5 27.4-2.55L27.4-2.55Q27.5 0.05 25.5 0.05L25.5 0.05ZM22.75-20.65L22.75-20.65Q22.75-18.9 21.53-17.7 20.3-16.5 18.55-16.5L18.55-16.5Q16.85-16.5 15.65-17.7 14.45-18.9 14.45-20.65L14.45-20.65Q14.45-22.4 15.65-23.6 16.85-24.8 18.55-24.8L18.55-24.8Q20.3-24.8 21.53-23.6 22.75-22.4 22.75-20.65ZM38.05-37.8L38.05-1.95Q38.05 0.4 35.3 0.4L35.3 0.4Q32.5 0.4 32.5-1.95L32.5-1.95 32.5-37.8Q32.5-40.15 35.3-40.15L35.3-40.15Q38.05-40.15 38.05-37.8L38.05-37.8ZM50.45-22.15L50.45-8Q50.45-6.8 51.22-5.75 52-4.7 53.85-4.7L53.85-4.7 60.09-4.7Q61.95-4.7 62.72-5.63 63.5-6.55 63.5-7.75L63.5-7.75 63.5-8.3Q63.5-10.65 66.25-10.65L66.25-10.65Q69-10.65 69-8.3L69-8.3 69-7.7Q69-5.6 68.32-4.25 67.65-2.9 66.3-1.9L66.3-1.9Q63.65 0 61 0L61 0 52.6 0Q49.95 0 47.45-1.9L47.45-1.9Q46.25-2.9 45.6-4.42 44.95-5.95 44.95-7.95L44.95-7.95 44.95-22.2Q44.95-26.25 47.45-28.2L47.45-28.2Q48.7-29.1 50.02-29.63 51.35-30.15 52.6-30.15L52.6-30.15 61-30.15Q62.2-30.15 63.65-29.68 65.09-29.2 66.34-28.4L66.34-28.4Q67.55-27.55 68.27-26.05 69-24.55 69-22.5L69-22.5 69-15.75Q69-14.6 68.32-13.7 67.65-12.8 65.84-12.8L65.84-12.8 55.05-12.8Q53.25-12.8 53.15-15.15L53.15-15.15Q53.15-17.5 55.05-17.5L55.05-17.5 63.55-17.5 63.5-22.15Q63.5-23.4 62.72-24.43 61.95-25.45 60.09-25.45L60.09-25.45 53.85-25.45Q52-25.45 51.22-24.43 50.45-23.4 50.45-22.15L50.45-22.15ZM86.09 0.3L85.54 0.3Q85.44 0.3 85.29 0.28 85.14 0.25 84.99 0.25L84.99 0.25Q84.74 0.25 84.29 0.25L84.29 0.25Q83.84 0.25 83.44 0.2L83.44 0.2Q82.59 0.15 81.99-0.28 81.39-0.7 81.14-1.3L81.14-1.3 72.74-27.1Q72.49-28.15 73.02-28.98 73.54-29.8 74.69-30.2L74.69-30.2Q75.04-30.3 75.39-30.35 75.74-30.4 75.99-30.4L75.99-30.4Q77.54-30.4 78.14-28.7L78.14-28.7 81.79-17.35 85.64-5.45 93.14-28.7Q93.69-30.45 95.14-30.45L95.14-30.45Q95.69-30.45 96.54-30.2L96.54-30.2Q97.84-29.85 98.34-29.03 98.84-28.2 98.49-27.1L98.49-27.1 90.14-1.3Q89.69 0.1 87.79 0.2L87.79 0.2Q87.69 0.2 87.57 0.23 87.44 0.25 87.34 0.25L87.34 0.25Q86.94 0.3 86.64 0.3L86.64 0.3Q86.34 0.3 86.09 0.3L86.09 0.3ZM110.94-30.1L118.94-30.1Q120.24-30.1 121.62-29.55 122.99-29 124.29-28.15L124.29-28.15 124.24-28.15Q125.54-27.2 126.24-25.68 126.94-24.15 126.94-22.15L126.94-22.15 126.94-7.95Q126.94-3.85 124.24-1.9L124.24-1.9Q121.59 0 118.94 0L118.94 0 110.94 0Q109.64 0 108.29-0.45 106.94-0.9 105.64-1.9L105.64-1.9Q102.94-3.8 102.94-7.95L102.94-7.95 102.94-22.15Q102.94-24.15 103.64-25.68 104.34-27.2 105.64-28.15L105.64-28.15 105.59-28.15Q106.84-29 108.24-29.55 109.64-30.1 110.94-30.1L110.94-30.1ZM111.84-4.7L118.04-4.7Q119.89-4.7 120.67-5.75 121.44-6.8 121.44-8L121.44-8 121.44-22.1Q121.44-23.35 120.67-24.38 119.89-25.4 118.04-25.4L118.04-25.4 111.84-25.4Q109.99-25.4 109.22-24.38 108.44-23.35 108.44-22.1L108.44-22.1 108.44-8Q108.44-6.8 109.22-5.75 109.99-4.7 111.84-4.7L111.84-4.7ZM151.79-1.75L151.79-25.4 142.14-25.4Q140.09-25.4 139.44-24.2L139.44-24.2Q138.74-23.15 138.74-21.75L138.74-21.75 138.74-7.35Q138.74-6.05 139.54-5.38 140.34-4.7 142.19-4.7L142.19-4.7 147.34-4.7Q149.14-4.7 149.14-2.35L149.14-2.35Q149.14-1.35 148.71-0.68 148.29 0 147.34 0L147.34 0 141.29 0Q138.14 0 135.69-1.6L135.69-1.6Q133.24-3.1 133.24-7.3L133.24-7.3 133.24-22.2Q133.24-24.25 133.89-25.75 134.54-27.25 135.94-28.2L135.94-28.2Q138.59-30.1 141.24-30.1L141.24-30.1 151.79-30.1 151.79-37.6Q151.79-40 154.54-40L154.54-40Q157.29-40 157.29-37.6L157.29-37.6 157.29-2.1Q157.29 0.3 154.54 0.3L154.54 0.3Q153.49 0.3 152.64-0.08 151.79-0.45 151.79-1.75L151.79-1.75ZM169.39-22.15L169.39-8Q169.39-6.8 170.16-5.75 170.94-4.7 172.79-4.7L172.79-4.7 179.04-4.7Q180.89-4.7 181.66-5.63 182.44-6.55 182.44-7.75L182.44-7.75 182.44-8.3Q182.44-10.65 185.19-10.65L185.19-10.65Q187.94-10.65 187.94-8.3L187.94-8.3 187.94-7.7Q187.94-5.6 187.26-4.25 186.59-2.9 185.24-1.9L185.24-1.9Q182.59 0 179.94 0L179.94 0 171.54 0Q168.89 0 166.39-1.9L166.39-1.9Q165.19-2.9 164.54-4.42 163.89-5.95 163.89-7.95L163.89-7.95 163.89-22.2Q163.89-26.25 166.39-28.2L166.39-28.2Q167.64-29.1 168.96-29.63 170.29-30.15 171.54-30.15L171.54-30.15 179.94-30.15Q181.14-30.15 182.59-29.68 184.04-29.2 185.29-28.4L185.29-28.4Q186.49-27.55 187.21-26.05 187.94-24.55 187.94-22.5L187.94-22.5 187.94-15.75Q187.94-14.6 187.26-13.7 186.59-12.8 184.79-12.8L184.79-12.8 173.99-12.8Q172.19-12.8 172.09-15.15L172.09-15.15Q172.09-17.5 173.99-17.5L173.99-17.5 182.49-17.5 182.44-22.15Q182.44-23.4 181.66-24.43 180.89-25.45 179.04-25.45L179.04-25.45 172.79-25.45Q170.94-25.45 170.16-24.43 169.39-23.4 169.39-22.15L169.39-22.15Z" opacity="1" transform="matrix(1,0,0,1,0,0)" fill="#ffffff" class="wordmark-text-0" data-fill-palette-color="primary" id="text-0"></path></svg></g></svg></g></svg></g></svg></g></svg></g><defs></defs></svg><rect width="395.52" height="87.21226753670473" fill="none" stroke="none" visibility="hidden"></rect></g></svg></g></svg>